<svg xmlns="http://www.w3.org/2000/svg" xmlns:xlink="http://www.w3.org/1999/xlink" width="497" zoomAndPan="magnify" viewBox="0 0 372.75 437.249996" height="583" preserveAspectRatio="xMidYMid meet" version="1.0"><defs><clipPath id="fc895bdf06"><path d="M 0.617188 0.183594 L 371.707031 0.183594 L 371.707031 436.5 L 0.617188 436.5 Z M 0.617188 0.183594 " clip-rule="nonzero"/></clipPath><clipPath id="b5627adea3"><path d="M 27.574219 0.183594 L 344.75 0.183594 C 359.636719 0.183594 371.707031 12.25 371.707031 27.136719 L 371.707031 409.261719 C 371.707031 424.148438 359.636719 436.21875 344.75 436.21875 L 27.574219 436.21875 C 12.6875 436.21875 0.617188 424.148438 0.617188 409.261719 L 0.617188 27.136719 C 0.617188 12.25 12.6875 0.183594 27.574219 0.183594 Z M 27.574219 0.183594 " clip-rule="nonzero"/></clipPath></defs><g clip-path="url(#fc895bdf06)"><g clip-path="url(#b5627adea3)"><path fill="#edc2f6" d="M 0.617188 0.183594 L 371.707031 0.183594 L 371.707031 436.5 L 0.617188 436.5 Z M 0.617188 0.183594 " fill-opacity="1" fill-rule="nonzero"/><path fill="#edc2f6" d="M 0.617188 0.183594 L 371.707031 0.183594 L 371.707031 436.5 L 0.617188 436.5 Z M 0.617188 0.183594 " fill-opacity="1" fill-rule="nonzero"/></g></g></svg>