<svg width="24" height="24" viewBox="0 0 24 24" fill="none" xmlns="http://www.w3.org/2000/svg">
<mask id="mask0_9_92582" style="mask-type:alpha" maskUnits="userSpaceOnUse" x="0" y="0" width="24" height="24">
<rect width="24" height="24" fill="#D9D9D9"/>
</mask>
<g mask="url(#mask0_9_92582)">
<path d="M12 4C14.2333 4 16.125 4.775 17.675 6.325C19.225 7.875 20 9.76667 20 12C20 14.2333 19.225 16.125 17.675 17.675C16.125 19.225 14.2333 20 12 20C9.76667 20 7.875 19.225 6.325 17.675C4.775 16.125 4 14.2333 4 12C4 9.76667 4.775 7.875 6.325 6.325C7.875 4.775 9.76667 4 12 4ZM12 18C13.6667 18 15.0833 17.4167 16.25 16.25C17.4167 15.0833 18 13.6667 18 12C18 10.3333 17.4167 8.91667 16.25 7.75C15.0833 6.58333 13.6667 6 12 6C10.3333 6 8.91667 6.58333 7.75 7.75C6.58333 8.91667 6 10.3333 6 12C6 13.6667 6.58333 15.0833 7.75 16.25C8.91667 17.4167 10.3333 18 12 18ZM12 15.5C12.8 15.5 13.5167 15.2708 14.15 14.8125C14.7833 14.3542 15.2333 13.75 15.5 13H8.5C8.76667 13.75 9.21667 14.3542 9.85 14.8125C10.4833 15.2708 11.2 15.5 12 15.5ZM8.5 10C8.5 10.2833 8.59583 10.5208 8.7875 10.7125C8.97917 10.9042 9.21667 11 9.5 11C9.78333 11 10.0208 10.9042 10.2125 10.7125C10.4042 10.5208 10.5 10.2833 10.5 10C10.5 9.71667 10.4042 9.47917 10.2125 9.2875C10.0208 9.09583 9.78333 9 9.5 9C9.21667 9 8.97917 9.09583 8.7875 9.2875C8.59583 9.47917 8.5 9.71667 8.5 10ZM13.5 10C13.5 10.2833 13.5958 10.5208 13.7875 10.7125C13.9792 10.9042 14.2167 11 14.5 11C14.7833 11 15.0208 10.9042 15.2125 10.7125C15.4042 10.5208 15.5 10.2833 15.5 10C15.5 9.71667 15.4042 9.47917 15.2125 9.2875C15.0208 9.09583 14.7833 9 14.5 9C14.2167 9 13.9792 9.09583 13.7875 9.2875C13.5958 9.47917 13.5 9.71667 13.5 10ZM1 6V4C1 3.16667 1.29167 2.45833 1.875 1.875C2.45833 1.29167 3.16667 1 4 1H6V3H4C3.71667 3 3.47917 3.09583 3.2875 3.2875C3.09583 3.47917 3 3.71667 3 4V6H1ZM4 23C3.16667 23 2.45833 22.7083 1.875 22.125C1.29167 21.5417 1 20.8333 1 20V18H3V20C3 20.2833 3.09583 20.5208 3.2875 20.7125C3.47917 20.9042 3.71667 21 4 21H6V23H4ZM18 23V21H20C20.2833 21 20.5208 20.9042 20.7125 20.7125C20.9042 20.5208 21 20.2833 21 20V18H23V20C23 20.8333 22.7083 21.5417 22.125 22.125C21.5417 22.7083 20.8333 23 20 23H18ZM21 6V4C21 3.71667 20.9042 3.47917 20.7125 3.2875C20.5208 3.09583 20.2833 3 20 3H18V1H20C20.8333 1 21.5417 1.29167 22.125 1.875C22.7083 2.45833 23 3.16667 23 4V6H21Z" fill="white"/>
</g>
</svg>
