<svg xmlns="http://www.w3.org/2000/svg" xmlns:xlink="http://www.w3.org/1999/xlink" width="40" zoomAndPan="magnify" viewBox="0 0 30 24.749999" height="33" preserveAspectRatio="xMidYMid meet" version="1.0"><defs><clipPath id="5c82e82e28"><path d="M 0.246094 10 L 29.847656 10 L 29.847656 24.105469 L 0.246094 24.105469 Z M 0.246094 10 " clip-rule="nonzero"/></clipPath><clipPath id="61c8c4da9a"><path d="M 20 0.347656 L 29.847656 0.347656 L 29.847656 6 L 20 6 Z M 20 0.347656 " clip-rule="nonzero"/></clipPath><clipPath id="7105b6f2b9"><path d="M 0.246094 0.347656 L 9 0.347656 L 9 6 L 0.246094 6 Z M 0.246094 0.347656 " clip-rule="nonzero"/></clipPath><clipPath id="b59a6d1012"><path d="M 0.246094 7 L 29.847656 7 L 29.847656 10 L 0.246094 10 Z M 0.246094 7 " clip-rule="nonzero"/></clipPath><clipPath id="4f3e3a7a13"><path d="M 9 0.347656 L 21 0.347656 L 21 6 L 9 6 Z M 9 0.347656 " clip-rule="nonzero"/></clipPath><clipPath id="aabb7b6fca"><path d="M 0.246094 10 L 29.847656 10 L 29.847656 24.105469 L 0.246094 24.105469 Z M 0.246094 10 " clip-rule="nonzero"/></clipPath><clipPath id="e50b391260"><path d="M 20 0.347656 L 29.847656 0.347656 L 29.847656 6 L 20 6 Z M 20 0.347656 " clip-rule="nonzero"/></clipPath><clipPath id="12fa57d26b"><path d="M 0.246094 0.347656 L 9 0.347656 L 9 6 L 0.246094 6 Z M 0.246094 0.347656 " clip-rule="nonzero"/></clipPath><clipPath id="079d768b7e"><path d="M 0.246094 7 L 29.847656 7 L 29.847656 10 L 0.246094 10 Z M 0.246094 7 " clip-rule="nonzero"/></clipPath><clipPath id="c1c20c8588"><path d="M 9 0.347656 L 21 0.347656 L 21 6 L 9 6 Z M 9 0.347656 " clip-rule="nonzero"/></clipPath></defs><g clip-path="url(#5c82e82e28)"><path fill="#edc2f6" d="M 0.34375 10.777344 L 0.34375 24.238281 L 29.476562 24.238281 L 29.476562 10.777344 Z M 14.910156 11.824219 C 15.089844 11.824219 15.261719 11.859375 15.425781 11.929688 C 15.59375 11.996094 15.738281 12.09375 15.863281 12.222656 C 15.992188 12.347656 16.089844 12.492188 16.15625 12.660156 C 16.226562 12.824219 16.261719 12.996094 16.261719 13.175781 C 16.253906 13.695312 16.023438 14.078125 15.570312 14.328125 L 15.570312 15.519531 C 15.570312 15.703125 15.507812 15.859375 15.378906 15.988281 C 15.25 16.117188 15.09375 16.183594 14.910156 16.183594 C 14.726562 16.183594 14.570312 16.117188 14.441406 15.988281 C 14.3125 15.859375 14.246094 15.703125 14.246094 15.519531 L 14.246094 14.328125 C 13.792969 14.078125 13.5625 13.695312 13.558594 13.175781 C 13.558594 12.996094 13.59375 12.824219 13.660156 12.660156 C 13.730469 12.492188 13.828125 12.347656 13.953125 12.21875 C 14.082031 12.09375 14.226562 11.996094 14.390625 11.925781 C 14.558594 11.859375 14.730469 11.824219 14.910156 11.824219 Z M 27.101562 21.148438 C 27.101562 21.332031 27.035156 21.488281 26.90625 21.617188 C 26.777344 21.746094 26.621094 21.8125 26.441406 21.8125 L 3.375 21.8125 C 3.195312 21.8125 3.039062 21.746094 2.910156 21.617188 C 2.777344 21.488281 2.714844 21.332031 2.714844 21.148438 L 2.714844 13.863281 C 2.714844 13.683594 2.777344 13.527344 2.910156 13.398438 C 3.039062 13.269531 3.195312 13.203125 3.375 13.203125 L 11.210938 13.203125 C 11.394531 13.203125 11.550781 13.269531 11.679688 13.398438 C 11.808594 13.527344 11.871094 13.683594 11.871094 13.863281 L 11.871094 15.101562 C 11.875 15.394531 11.929688 15.671875 12.039062 15.9375 C 12.152344 16.207031 12.308594 16.441406 12.515625 16.648438 C 12.71875 16.851562 12.953125 17.007812 13.222656 17.121094 C 13.488281 17.230469 13.769531 17.285156 14.058594 17.285156 L 15.757812 17.285156 C 16.050781 17.285156 16.328125 17.230469 16.59375 17.121094 C 16.863281 17.007812 17.097656 16.851562 17.304688 16.648438 C 17.507812 16.441406 17.664062 16.207031 17.777344 15.9375 C 17.886719 15.671875 17.941406 15.394531 17.941406 15.101562 L 17.941406 13.863281 C 17.941406 13.683594 18.007812 13.527344 18.136719 13.398438 C 18.265625 13.269531 18.421875 13.203125 18.605469 13.203125 L 26.441406 13.203125 C 26.621094 13.203125 26.777344 13.269531 26.90625 13.398438 C 27.035156 13.527344 27.101562 13.683594 27.101562 13.863281 Z M 27.101562 21.148438 " fill-opacity="1" fill-rule="nonzero"/></g><g clip-path="url(#61c8c4da9a)"><path fill="#edc2f6" d="M 21.441406 5.757812 L 29.425781 5.757812 L 29.425781 3.226562 C 29.425781 2.835938 29.351562 2.460938 29.203125 2.101562 C 29.054688 1.742188 28.84375 1.425781 28.566406 1.152344 C 28.292969 0.875 27.976562 0.664062 27.617188 0.515625 C 27.257812 0.367188 26.882812 0.292969 26.492188 0.292969 L 20.925781 0.292969 C 21.289062 1.234375 21.460938 2.214844 21.441406 3.226562 Z M 21.441406 5.757812 " fill-opacity="1" fill-rule="nonzero"/></g><g clip-path="url(#7105b6f2b9)"><path fill="#edc2f6" d="M 8.335938 3.226562 C 8.316406 2.214844 8.488281 1.234375 8.851562 0.292969 L 3.28125 0.292969 C 2.890625 0.292969 2.515625 0.367188 2.15625 0.515625 C 1.796875 0.664062 1.480469 0.875 1.203125 1.148438 C 0.929688 1.425781 0.714844 1.742188 0.566406 2.101562 C 0.417969 2.460938 0.34375 2.835938 0.34375 3.226562 L 0.34375 5.757812 L 8.335938 5.757812 Z M 8.335938 3.226562 " fill-opacity="1" fill-rule="nonzero"/></g><g clip-path="url(#b59a6d1012)"><path fill="#edc2f6" d="M 29.425781 7.082031 L 0.347656 7.082031 L 0.347656 9.453125 L 29.425781 9.453125 Z M 29.425781 7.082031 " fill-opacity="1" fill-rule="nonzero"/></g><g clip-path="url(#4f3e3a7a13)"><path fill="#edc2f6" d="M 20.117188 3.226562 C 20.246094 2.148438 19.996094 1.171875 19.363281 0.292969 L 10.390625 0.292969 C 9.785156 1.179688 9.539062 2.15625 9.660156 3.226562 L 9.660156 5.757812 L 20.121094 5.757812 Z M 20.117188 3.226562 " fill-opacity="1" fill-rule="nonzero"/></g><g clip-path="url(#aabb7b6fca)"><path fill="#edc2f6" d="M 0.34375 10.777344 L 0.34375 24.238281 L 29.476562 24.238281 L 29.476562 10.777344 Z M 14.910156 11.824219 C 15.089844 11.824219 15.261719 11.859375 15.425781 11.929688 C 15.59375 11.996094 15.738281 12.09375 15.863281 12.222656 C 15.992188 12.347656 16.089844 12.492188 16.15625 12.660156 C 16.226562 12.824219 16.261719 12.996094 16.261719 13.175781 C 16.253906 13.695312 16.023438 14.078125 15.570312 14.328125 L 15.570312 15.519531 C 15.570312 15.703125 15.507812 15.859375 15.378906 15.988281 C 15.25 16.117188 15.09375 16.183594 14.910156 16.183594 C 14.726562 16.183594 14.570312 16.117188 14.441406 15.988281 C 14.3125 15.859375 14.246094 15.703125 14.246094 15.519531 L 14.246094 14.328125 C 13.792969 14.078125 13.5625 13.695312 13.558594 13.175781 C 13.558594 12.996094 13.59375 12.824219 13.660156 12.660156 C 13.730469 12.492188 13.828125 12.347656 13.953125 12.21875 C 14.082031 12.09375 14.226562 11.996094 14.390625 11.925781 C 14.558594 11.859375 14.730469 11.824219 14.910156 11.824219 Z M 27.101562 21.148438 C 27.101562 21.332031 27.035156 21.488281 26.90625 21.617188 C 26.777344 21.746094 26.621094 21.8125 26.441406 21.8125 L 3.375 21.8125 C 3.195312 21.8125 3.039062 21.746094 2.910156 21.617188 C 2.777344 21.488281 2.714844 21.332031 2.714844 21.148438 L 2.714844 13.863281 C 2.714844 13.683594 2.777344 13.527344 2.910156 13.398438 C 3.039062 13.269531 3.195312 13.203125 3.375 13.203125 L 11.210938 13.203125 C 11.394531 13.203125 11.550781 13.269531 11.679688 13.398438 C 11.808594 13.527344 11.871094 13.683594 11.871094 13.863281 L 11.871094 15.101562 C 11.875 15.394531 11.929688 15.671875 12.039062 15.9375 C 12.152344 16.207031 12.308594 16.441406 12.515625 16.648438 C 12.71875 16.851562 12.953125 17.007812 13.222656 17.121094 C 13.488281 17.230469 13.769531 17.285156 14.058594 17.285156 L 15.757812 17.285156 C 16.050781 17.285156 16.328125 17.230469 16.59375 17.121094 C 16.863281 17.007812 17.097656 16.851562 17.304688 16.648438 C 17.507812 16.441406 17.664062 16.207031 17.777344 15.9375 C 17.886719 15.671875 17.941406 15.394531 17.941406 15.101562 L 17.941406 13.863281 C 17.941406 13.683594 18.007812 13.527344 18.136719 13.398438 C 18.265625 13.269531 18.421875 13.203125 18.605469 13.203125 L 26.441406 13.203125 C 26.621094 13.203125 26.777344 13.269531 26.90625 13.398438 C 27.035156 13.527344 27.101562 13.683594 27.101562 13.863281 Z M 27.101562 21.148438 " fill-opacity="1" fill-rule="nonzero"/></g><g clip-path="url(#e50b391260)"><path fill="#edc2f6" d="M 21.441406 5.757812 L 29.425781 5.757812 L 29.425781 3.226562 C 29.425781 2.835938 29.351562 2.460938 29.203125 2.101562 C 29.054688 1.742188 28.84375 1.425781 28.566406 1.152344 C 28.292969 0.875 27.976562 0.664062 27.617188 0.515625 C 27.257812 0.367188 26.882812 0.292969 26.492188 0.292969 L 20.925781 0.292969 C 21.289062 1.234375 21.460938 2.214844 21.441406 3.226562 Z M 21.441406 5.757812 " fill-opacity="1" fill-rule="nonzero"/></g><g clip-path="url(#12fa57d26b)"><path fill="#edc2f6" d="M 8.335938 3.226562 C 8.316406 2.214844 8.488281 1.234375 8.851562 0.292969 L 3.28125 0.292969 C 2.890625 0.292969 2.515625 0.367188 2.15625 0.515625 C 1.796875 0.664062 1.480469 0.875 1.203125 1.148438 C 0.929688 1.425781 0.714844 1.742188 0.566406 2.101562 C 0.417969 2.460938 0.34375 2.835938 0.34375 3.226562 L 0.34375 5.757812 L 8.335938 5.757812 Z M 8.335938 3.226562 " fill-opacity="1" fill-rule="nonzero"/></g><g clip-path="url(#079d768b7e)"><path fill="#edc2f6" d="M 29.425781 7.082031 L 0.347656 7.082031 L 0.347656 9.453125 L 29.425781 9.453125 Z M 29.425781 7.082031 " fill-opacity="1" fill-rule="nonzero"/></g><g clip-path="url(#c1c20c8588)"><path fill="#edc2f6" d="M 20.117188 3.226562 C 20.246094 2.148438 19.996094 1.171875 19.363281 0.292969 L 10.390625 0.292969 C 9.785156 1.179688 9.539062 2.15625 9.660156 3.226562 L 9.660156 5.757812 L 20.121094 5.757812 Z M 20.117188 3.226562 " fill-opacity="1" fill-rule="nonzero"/></g></svg>