<svg xmlns="http://www.w3.org/2000/svg" xmlns:xlink="http://www.w3.org/1999/xlink" width="32" zoomAndPan="magnify" viewBox="0 0 24 23.999999" height="32" preserveAspectRatio="xMidYMid meet" version="1.0"><defs><clipPath id="e169dce213"><path d="M 0.375 17 L 23.625 17 L 23.625 23.796875 L 0.375 23.796875 Z M 0.375 17 " clip-rule="nonzero"/></clipPath><clipPath id="2a4391f661"><path d="M 7 0.546875 L 17 0.546875 L 17 20 L 7 20 Z M 7 0.546875 " clip-rule="nonzero"/></clipPath><clipPath id="628b455c7a"><path d="M 0.375 17 L 23.625 17 L 23.625 23.796875 L 0.375 23.796875 Z M 0.375 17 " clip-rule="nonzero"/></clipPath><clipPath id="b0e7e30c45"><path d="M 7 0.546875 L 17 0.546875 L 17 20 L 7 20 Z M 7 0.546875 " clip-rule="nonzero"/></clipPath></defs><g clip-path="url(#e169dce213)"><path fill="#edc2f6" d="M 23.207031 17.015625 L 20.210938 17.015625 C 20.109375 17.015625 20.019531 17.050781 19.945312 17.125 C 19.875 17.199219 19.835938 17.285156 19.835938 17.390625 L 19.835938 20.007812 L 4.117188 20.007812 L 4.117188 17.390625 C 4.117188 17.285156 4.082031 17.199219 4.007812 17.125 C 3.9375 17.050781 3.847656 17.015625 3.746094 17.015625 L 0.75 17.015625 C 0.648438 17.015625 0.558594 17.050781 0.484375 17.125 C 0.414062 17.199219 0.375 17.285156 0.375 17.390625 L 0.375 23.375 C 0.375 23.480469 0.414062 23.570312 0.484375 23.640625 C 0.558594 23.714844 0.648438 23.75 0.75 23.75 L 23.207031 23.75 C 23.308594 23.75 23.398438 23.714844 23.46875 23.640625 C 23.542969 23.570312 23.578125 23.480469 23.578125 23.375 L 23.578125 17.390625 C 23.578125 17.285156 23.542969 17.199219 23.46875 17.125 C 23.398438 17.050781 23.308594 17.015625 23.207031 17.015625 Z M 23.207031 17.015625 " fill-opacity="1" fill-rule="nonzero"/></g><g clip-path="url(#2a4391f661)"><path fill="#edc2f6" d="M 11.679688 19.109375 C 11.753906 19.210938 11.851562 19.261719 11.976562 19.261719 C 12.101562 19.261719 12.203125 19.210938 12.277344 19.109375 L 16.769531 13.121094 C 16.859375 13 16.871094 12.867188 16.800781 12.730469 C 16.734375 12.59375 16.621094 12.523438 16.46875 12.523438 L 15.347656 12.523438 L 15.347656 0.921875 C 15.347656 0.820312 15.308594 0.730469 15.238281 0.65625 C 15.164062 0.585938 15.074219 0.546875 14.972656 0.546875 L 8.984375 0.546875 C 8.878906 0.546875 8.792969 0.585938 8.71875 0.65625 C 8.644531 0.730469 8.609375 0.820312 8.609375 0.921875 L 8.609375 12.523438 L 7.488281 12.523438 C 7.332031 12.523438 7.222656 12.59375 7.152344 12.730469 C 7.085938 12.867188 7.09375 13 7.1875 13.121094 Z M 11.679688 19.109375 " fill-opacity="1" fill-rule="nonzero"/></g><g clip-path="url(#628b455c7a)"><path fill="#edc2f6" d="M 23.207031 17.015625 L 20.210938 17.015625 C 20.109375 17.015625 20.019531 17.050781 19.945312 17.125 C 19.875 17.199219 19.835938 17.285156 19.835938 17.390625 L 19.835938 20.007812 L 4.117188 20.007812 L 4.117188 17.390625 C 4.117188 17.285156 4.082031 17.199219 4.007812 17.125 C 3.9375 17.050781 3.847656 17.015625 3.746094 17.015625 L 0.75 17.015625 C 0.648438 17.015625 0.558594 17.050781 0.484375 17.125 C 0.414062 17.199219 0.375 17.285156 0.375 17.390625 L 0.375 23.375 C 0.375 23.480469 0.414062 23.570312 0.484375 23.640625 C 0.558594 23.714844 0.648438 23.75 0.75 23.75 L 23.207031 23.75 C 23.308594 23.75 23.398438 23.714844 23.46875 23.640625 C 23.542969 23.570312 23.578125 23.480469 23.578125 23.375 L 23.578125 17.390625 C 23.578125 17.285156 23.542969 17.199219 23.46875 17.125 C 23.398438 17.050781 23.308594 17.015625 23.207031 17.015625 Z M 23.207031 17.015625 " fill-opacity="1" fill-rule="nonzero"/></g><g clip-path="url(#b0e7e30c45)"><path fill="#edc2f6" d="M 11.679688 19.109375 C 11.753906 19.210938 11.851562 19.261719 11.976562 19.261719 C 12.101562 19.261719 12.203125 19.210938 12.277344 19.109375 L 16.769531 13.121094 C 16.859375 13 16.871094 12.867188 16.800781 12.730469 C 16.734375 12.59375 16.621094 12.523438 16.46875 12.523438 L 15.347656 12.523438 L 15.347656 0.921875 C 15.347656 0.820312 15.308594 0.730469 15.238281 0.65625 C 15.164062 0.585938 15.074219 0.546875 14.972656 0.546875 L 8.984375 0.546875 C 8.878906 0.546875 8.792969 0.585938 8.71875 0.65625 C 8.644531 0.730469 8.609375 0.820312 8.609375 0.921875 L 8.609375 12.523438 L 7.488281 12.523438 C 7.332031 12.523438 7.222656 12.59375 7.152344 12.730469 C 7.085938 12.867188 7.09375 13 7.1875 13.121094 Z M 11.679688 19.109375 " fill-opacity="1" fill-rule="nonzero"/></g></svg>