<svg width="25" height="24" viewBox="0 0 25 24" fill="none" xmlns="http://www.w3.org/2000/svg">
<mask id="mask0_9_92594" style="mask-type:alpha" maskUnits="userSpaceOnUse" x="0" y="0" width="25" height="24">
<rect x="0.992188" width="24" height="24" fill="#D9D9D9"/>
</mask>
<g mask="url(#mask0_9_92594)">
<path d="M6.99219 8H15.9922V6C15.9922 5.16667 15.7005 4.45833 15.1172 3.875C14.5339 3.29167 13.8255 3 12.9922 3C12.1589 3 11.4505 3.29167 10.8672 3.875C10.2839 4.45833 9.99219 5.16667 9.99219 6H7.99219C7.99219 4.61667 8.47969 3.4375 9.45469 2.4625C10.4297 1.4875 11.6089 1 12.9922 1C14.3755 1 15.5547 1.4875 16.5297 2.4625C17.5047 3.4375 17.9922 4.61667 17.9922 6V8H18.9922C19.5422 8 20.013 8.19583 20.4047 8.5875C20.7964 8.97917 20.9922 9.45 20.9922 10V20C20.9922 20.55 20.7964 21.0208 20.4047 21.4125C20.013 21.8042 19.5422 22 18.9922 22H6.99219C6.44219 22 5.97135 21.8042 5.57969 21.4125C5.18802 21.0208 4.99219 20.55 4.99219 20V10C4.99219 9.45 5.18802 8.97917 5.57969 8.5875C5.97135 8.19583 6.44219 8 6.99219 8ZM6.99219 20H18.9922V10H6.99219V20ZM12.9922 17C13.5422 17 14.013 16.8042 14.4047 16.4125C14.7964 16.0208 14.9922 15.55 14.9922 15C14.9922 14.45 14.7964 13.9792 14.4047 13.5875C14.013 13.1958 13.5422 13 12.9922 13C12.4422 13 11.9714 13.1958 11.5797 13.5875C11.188 13.9792 10.9922 14.45 10.9922 15C10.9922 15.55 11.188 16.0208 11.5797 16.4125C11.9714 16.8042 12.4422 17 12.9922 17Z" fill="white"/>
</g>
</svg>
