<svg width="63" height="20" viewBox="0 0 63 20" fill="none" xmlns="http://www.w3.org/2000/svg">
<g clip-path="url(#clip0_431:9731)">
<path d="M26.9674 0.0121139L16.5864 7.80136C16.0985 5.88548 14.971 4.18251 13.3814 2.96084C11.7919 1.73917 9.83088 1.06828 7.80736 1.0539H0.356934V18.9582H7.80736C9.84167 18.985 11.8237 18.3294 13.4217 17.1012C15.0199 15.8729 16.1371 14.1465 16.5864 12.2108L26.9674 20L37.3483 12.2108V18.9582H49.0579V15.3241H41.3343V1.04179H37.0752V7.78921L27.2282 15.5784L25.1048 13.7614L29.8979 10.1272L34.9517 6.23864L32.0212 3.90066L22.1743 11.4234L20.0509 9.60629L29.8979 2.33797L26.9674 0V0.0121139ZM4.34291 4.67595H7.53421C8.19458 4.6772 8.84692 4.8177 9.44649 5.08782C10.0555 5.36108 10.6039 5.74791 11.0607 6.22653C11.5415 6.73029 11.9207 7.318 12.1783 7.95879C12.7078 9.32071 12.7078 10.8246 12.1783 12.1866C11.9374 12.8254 11.5798 13.4165 11.1228 13.9309C10.6787 14.4366 10.1336 14.8488 9.52096 15.1424C8.88989 15.4396 8.19775 15.5929 7.49694 15.5906H4.34291V4.68806V4.67595ZM62.3445 15.3241V18.9582H50.6473V1.04179H54.9065V15.3241H62.3569H62.3445Z" fill="black"/>
</g>
<defs>
<clipPath id="clip0_431:9731">
<rect width="62" height="20" fill="white" transform="translate(0.356934)"/>
</clipPath>
</defs>
</svg>
