<svg width="80" height="16" viewBox="0 0 80 16" fill="none" xmlns="http://www.w3.org/2000/svg">
<path fill-rule="evenodd" clip-rule="evenodd" d="M74.4684 3.27112C75.8901 3.27112 77.3794 3.58841 78.4175 3.99636V1.20872C77.3569 0.868765 75.8901 0.528809 73.9719 0.528809C70.3388 0.528809 67.8791 1.88863 67.8791 4.7216C67.8791 9.61696 74.8971 8.61976 74.8971 10.8861C74.8971 11.77 74.0622 12.2686 72.4149 12.2686C70.9255 12.2686 69.1879 12.2233 67.8339 11.5887V14.3537C69.1879 14.8296 71.1512 15.0336 72.6405 15.0336C76.4091 15.0336 79.1396 13.9004 79.1396 10.4102C79.1396 5.74147 72.0764 7.10129 72.0764 4.33631C72.0538 3.29378 73.1821 3.27112 74.4684 3.27112ZM59.6424 11.2488H58.3787V15.0336H53.9783V0.528809C54.0686 0.528809 57.4761 0.5968 59.0106 0.528809C63.5464 0.5968 66.5702 2.04728 66.5702 5.58282C66.5702 9.70762 63.6141 11.2488 59.6424 11.2488ZM59.0331 3.04448C58.8075 3.04448 58.6495 3.04448 58.4013 3.04448V8.71041H59.0331C61.2446 8.71041 62.1698 8.0305 62.1698 5.56016C62.1698 4.04169 61.1318 3.06715 59.0331 3.04448ZM47.0956 0.528809H51.496V15.0336H47.0956V0.528809ZM36.4218 15.0336V0.528809H40.8222V11.8833H45.2226L44.5908 15.0336H36.4218ZM29.5166 0.528809H33.917V15.0336H29.5166V0.528809ZM22.6113 9.36766H18.2109V15.0336H13.8105V0.528809H18.2109V6.19474H22.6113V0.528809H27.0117V15.0336H22.6113V9.36766ZM5.64154 11.2488H4.37784V15.0336H0V0.528809C0.0902647 0.528809 3.49776 0.5968 5.03226 0.528809C9.56806 0.5968 12.5694 2.04728 12.5694 5.58282C12.5694 9.70762 9.61319 11.2488 5.64154 11.2488ZM5.03226 3.04448C4.8066 3.04448 4.64863 3.04448 4.4004 3.04448V8.71041H5.03226C7.24374 8.71041 8.16896 8.0305 8.16896 5.56016C8.16896 4.04169 7.13091 3.06715 5.03226 3.04448Z" fill="black"/>
</svg>
