<svg width="88" height="26" viewBox="0 0 88 26" fill="none" xmlns="http://www.w3.org/2000/svg">
<g clip-path="url(#clip0_1248_7080)">
<path d="M71.7717 25.1175C66.9958 25.1175 63.11 21.0589 63.11 16.0785C63.11 11.0981 66.9958 7.03955 71.7717 7.03955C76.5476 7.03955 80.4334 11.0981 80.4334 16.0785C80.4334 21.0589 76.5356 25.1175 71.7717 25.1175ZM72.301 11.17C69.7747 11.17 67.7294 13.3728 67.7294 16.0665C67.7294 18.7723 69.7867 20.9632 72.301 20.9632C74.8152 20.9632 76.8719 18.7603 76.8719 16.0665C76.8719 13.3728 74.8152 11.17 72.301 11.17Z" fill="black"/>
<path d="M31.9279 7.27881H27.3083V24.83H31.9279V7.27881Z" fill="black"/>
<path d="M10.009 24.8303V7.27905C10.009 5.79451 8.79397 4.5973 7.31431 4.5973C5.82256 4.5973 4.61954 5.79451 4.61954 7.27905H0C0 3.26839 3.28422 0.0119711 7.31431 0.0119711C11.3443 0.0119711 14.6286 3.28037 14.6286 7.29105V20.245H17.3113V7.27905C17.3113 3.26839 20.5955 0 24.6255 0C28.6556 0 31.9398 3.26839 31.9398 7.27905H27.3203C27.3203 5.79451 26.1052 4.5973 24.6255 4.5973C23.1338 4.5973 21.9309 5.80649 21.9309 7.27905V24.8303H10.009Z" fill="black"/>
<path d="M4.61955 7.27881H0V24.83H4.61955V7.27881Z" fill="black"/>
<path d="M49.7925 7.27881H45.173V17.1798H49.7925V7.27881Z" fill="black"/>
<path d="M41.7923 25.1175C37.3893 25.1175 33.8043 21.5497 33.8043 17.168H38.4239C38.4239 19.0118 39.9396 20.5201 41.7923 20.5201C43.645 20.5201 45.1607 19.0118 45.1607 17.168H49.7803C49.7803 21.5497 46.1953 25.1175 41.7923 25.1175Z" fill="black"/>
<path d="M38.4362 7.27881H33.8167V17.1798H38.4362V7.27881Z" fill="black"/>
<path d="M87.9997 0.287109H83.3804V7.27888H87.9997V0.287109Z" fill="black"/>
<path d="M81.4918 7.27881H76.8718V24.83H81.4918V7.27881Z" fill="black"/>
<path d="M87.9997 7.27881H83.3804V24.83H87.9997V7.27881Z" fill="black"/>
<path d="M56.3007 11.8643H51.6813V24.8181H56.3007V11.8643Z" fill="black"/>
<path d="M63.0495 7.27881H51.6813V11.8761H63.0495V7.27881Z" fill="black"/>
</g>
<defs>
<clipPath id="clip0_1248_7080">
<rect width="88" height="25.1429" fill="white"/>
</clipPath>
</defs>
</svg>
