<svg width="109" height="21" viewBox="0 0 109 21" fill="none" xmlns="http://www.w3.org/2000/svg">
<path d="M2.25507 16.4809C1.85431 16.4818 1.4605 16.3763 1.11387 16.1751C0.767246 15.974 0.480225 15.6844 0.282131 15.336C0.08707 14.9901 -0.0102122 14.5976 0.000705489 14.2007C0.0116231 13.8037 0.130329 13.4171 0.344108 13.0825L4.40705 6.70214C4.615 6.35924 4.91024 6.07768 5.26261 5.88621C5.61498 5.69475 6.01185 5.60025 6.4127 5.61236C6.81324 5.62196 7.20403 5.73781 7.5451 5.94804C7.88616 6.15828 8.16524 6.45536 8.35379 6.80888C8.73254 7.52508 8.68519 8.38675 8.23155 9.05904L4.17119 15.4393C3.96529 15.7602 3.68172 16.0239 3.34676 16.206C3.01181 16.388 2.63631 16.4826 2.25507 16.4809V16.4809Z" fill="black"/>
<path d="M9.22374 16.4806C8.40427 16.4806 7.65021 16.0425 7.25425 15.3383C7.05962 14.9934 6.96257 14.6019 6.97349 14.206C6.9844 13.81 7.10289 13.4245 7.31623 13.0908L11.3714 6.72511C11.5763 6.37738 11.8705 6.0908 12.2235 5.89509C12.5764 5.69938 12.9753 5.60167 13.3788 5.61208C14.2052 5.63016 14.954 6.09241 15.3328 6.81549C15.709 7.53857 15.6539 8.4054 15.1865 9.07597L11.1321 15.4416C10.9269 15.7611 10.6444 16.0238 10.3109 16.2054C9.97738 16.387 9.60349 16.4816 9.22374 16.4806V16.4806Z" fill="black"/>
<path d="M16.037 16.5342C17.1923 16.5342 18.1288 15.6173 18.1288 14.4863C18.1288 13.3553 17.1923 12.4385 16.037 12.4385C14.8818 12.4385 13.9453 13.3553 13.9453 14.4863C13.9453 15.6173 14.8818 16.5342 16.037 16.5342Z" fill="black"/>
<path d="M106.907 12.5574C107.539 12.5574 107.917 13.0067 107.917 13.7427V16.2649H108.775V13.685C108.775 12.4334 108.185 11.7077 107.077 11.7077C106.643 11.7077 105.954 11.8265 105.544 12.6245C105.448 12.3891 105.291 12.184 105.088 12.0309C104.885 11.8778 104.645 11.7825 104.393 11.7551C104.234 11.726 104.072 11.7164 103.911 11.7267C103.558 11.7551 102.929 11.9746 102.694 12.4721V11.8033H101.835V16.2649H102.694V13.8572C102.694 12.9206 103.307 12.5574 103.921 12.5574C104.496 12.5574 104.874 12.9972 104.874 13.7332V16.2649H105.728V13.8572C105.728 13.1117 106.175 12.5487 106.907 12.5574ZM98.6822 15.5194C99.0747 15.528 99.4534 15.3713 99.728 15.0873C100.003 14.8032 100.15 14.4167 100.135 14.0199C100.135 13.1212 99.4741 12.5574 98.6822 12.5574C97.8894 12.5574 97.2291 13.1212 97.2291 14.0199C97.2136 14.4158 97.36 14.8015 97.6337 15.0847C97.9074 15.3688 98.2845 15.5263 98.6753 15.5194H98.6822ZM98.6822 16.3561C97.4271 16.3561 96.3795 15.429 96.3795 14.0147C96.3795 12.6004 97.4271 11.7026 98.6822 11.7026C99.9372 11.7026 100.993 12.6004 100.993 14.0147C100.993 15.429 99.9312 16.3604 98.6761 16.3604L98.6822 16.3561ZM91.9594 14.0147L91.9508 14.0199C91.9508 12.6056 93.0259 11.7077 94.2895 11.7026C94.607 11.6964 94.9222 11.757 95.2147 11.8804C95.5073 12.0037 95.7707 12.1872 95.9879 12.4188L95.3371 12.9731C95.1989 12.8374 95.0352 12.7304 94.8553 12.6583C94.6755 12.5862 94.4832 12.5504 94.2895 12.5531C93.4976 12.5531 92.809 13.1169 92.809 14.0147C92.809 14.6216 93.1696 15.1682 93.7231 15.4006C94.2766 15.633 94.9136 15.5039 95.3371 15.0752L95.9973 15.6296C95.7795 15.8636 95.5148 16.0491 95.2206 16.1743C94.9264 16.2995 94.6092 16.3614 94.2895 16.3561C93.0354 16.3561 91.9594 15.429 91.9594 14.0147ZM89.2109 15.4084C89.2099 15.3304 89.2244 15.2529 89.2534 15.1805C89.2824 15.1081 89.3254 15.0421 89.3799 14.9863C89.4345 14.9305 89.4994 14.886 89.5711 14.8553C89.6429 14.8247 89.7199 14.8084 89.7979 14.8075C89.8759 14.8084 89.953 14.8247 90.0247 14.8553C90.0964 14.886 90.1614 14.9305 90.2159 14.9863C90.2704 15.0421 90.3134 15.1081 90.3424 15.1805C90.3714 15.2529 90.3859 15.3304 90.385 15.4084C90.3773 15.5594 90.3123 15.7019 90.2032 15.8066C90.0941 15.9114 89.9492 15.9706 89.7979 15.9722C89.6467 15.9706 89.5017 15.9114 89.3926 15.8066C89.2835 15.7019 89.2185 15.5594 89.2109 15.4084Z" fill="black"/>
<path fill-rule="evenodd" clip-rule="evenodd" d="M91.5595 6.13116H88.5029L86.3604 11.655L84.229 6.13116H81.1724L84.8884 14.8598L82.5772 20.6306H85.6115L91.5595 6.13116ZM72.9699 10.9861C72.9699 12.3806 74.1887 13.2982 75.3861 13.2982C76.5628 13.2982 77.7189 12.4443 77.7189 10.9853C77.7189 9.52619 76.5628 8.67141 75.3861 8.67141C74.1887 8.67141 72.9699 9.58989 72.9699 10.9853V10.9861ZM77.7189 15.86V14.7556C77.0991 15.6939 75.6529 16.0485 74.9109 16.0485C72.4542 16.0485 69.9967 14.1117 69.9967 10.9853C69.9967 7.85967 72.4534 5.92285 74.9109 5.92285C75.5299 5.92285 76.976 6.12944 77.7189 7.21406V6.13461H80.5681V15.8617L77.7189 15.8609V15.86ZM69.1858 15.86H66.3366V14.6514C65.8606 15.5467 64.7062 16.0683 63.508 16.0683C61.0298 16.0683 58.8408 14.0893 58.8408 11.0249C58.8408 7.90271 61.0298 5.92113 63.508 5.92113C64.7045 5.92113 65.8623 6.4204 66.3366 7.3165V0.832031H69.1858V15.86ZM66.2746 10.9637C66.2746 9.50553 65.2219 8.65075 64.0452 8.65075C62.8263 8.65075 61.814 9.56751 61.814 10.9637C61.814 12.4047 62.8263 13.3172 64.0443 13.3172C65.2434 13.3189 66.2746 12.36 66.2746 10.9637V10.9637ZM51.7961 10.7124C51.7961 9.23351 52.5605 8.73339 53.5719 8.73339C54.542 8.73339 55.2444 9.37899 55.2444 10.6702V15.8583H58.1143V10.0461C58.1143 7.27604 56.7508 5.92113 54.5825 5.92113C53.4471 5.92113 52.3117 6.56673 51.7952 7.54633V6.13116H48.9271V15.8583H51.7961V10.7124ZM43.0995 16.0253C40.3742 16.0253 38.1009 14.0256 38.1009 10.9629C38.1009 7.8984 40.3716 5.91854 43.0995 5.91854C45.8273 5.91854 48.1179 7.8984 48.1179 10.9629C48.1179 14.0274 45.8248 16.0261 43.0995 16.0261V16.0253ZM43.0995 13.1932C44.296 13.1932 45.2885 12.3169 45.2885 10.9637C45.2885 9.65101 44.2968 8.75491 43.0995 8.75491C42.8112 8.7504 42.525 8.80462 42.2583 8.91428C41.9916 9.02394 41.7501 9.18674 41.5483 9.39276C41.3454 9.59989 41.1862 9.8457 41.0802 10.1156C40.9742 10.3854 40.9235 10.6739 40.9311 10.9637C40.932 12.3187 41.9228 13.1932 43.0995 13.1932ZM32.9559 8.73425C33.8021 8.73425 34.5458 9.40137 34.5458 10.6711V15.86H37.395V10.3353C37.395 7.39827 35.967 5.91941 33.6781 5.91941C32.9981 5.91941 31.7172 6.126 30.7876 7.64791C30.2504 6.52283 29.2183 5.9392 27.693 5.9392C27.1634 5.93651 26.6443 6.0864 26.1976 6.37094C25.751 6.65548 25.3957 7.06265 25.1743 7.54375V6.13202H22.3027V15.8592H25.1718V10.7124C25.1718 9.23351 25.9775 8.73339 26.8443 8.73339C27.6706 8.73339 28.4126 9.37899 28.4342 10.6082V15.8592H31.304V10.7124C31.304 9.29808 32.0478 8.73511 32.9559 8.73511V8.73425Z" fill="black"/>
</svg>
