<svg width="72" height="21" viewBox="0 0 72 21" fill="none" xmlns="http://www.w3.org/2000/svg">
<g clip-path="url(#clip0_1323:269235)">
<path d="M17.8683 21.0004L57.902 17.5996H14.3984L17.8683 21.0004Z" fill="black"/>
<path d="M67.1872 3.57129C66.3631 3.57129 65.5824 3.82635 64.8884 4.29396V3.82635H62.1992V15.3891H64.8884V8.62999C64.8016 7.43971 65.7558 6.41947 66.9703 6.33445C68.1848 6.24943 69.2257 7.18465 69.3125 8.37493C69.3125 8.45995 69.3125 8.54497 69.3125 8.62999V15.4316H72.0016V8.62999C72.0016 5.82433 70.0498 3.57129 67.1872 3.57129Z" fill="black"/>
<path d="M55.9951 3.52832C52.8722 3.52832 50.6602 6.20646 50.6602 9.60727C50.6602 13.1781 53.4361 15.6862 56.2553 15.6862C57.6867 15.6862 59.465 15.2186 60.983 13.0931L58.5975 11.7328C56.7758 14.3684 53.6963 13.0506 53.3493 10.3724H61.0698C61.7638 6.29148 59.0312 3.52832 55.9951 3.52832ZM53.5228 8.11941C54.0867 5.44128 57.8168 5.27124 58.3373 8.11941H53.5228Z" fill="black"/>
<path d="M44.9352 11.5631C44.8485 13.7311 46.54 15.6015 48.7955 15.6866C48.8388 15.6866 48.8822 15.6866 48.9256 15.6866C49.8364 15.644 50.7473 15.389 51.528 14.9639L49.7931 12.6683C49.5328 12.8384 49.2292 12.9659 48.8822 12.9659C48.1449 12.9659 47.581 12.3708 47.6244 11.6481C47.6244 11.6056 47.6244 11.6056 47.6244 11.5631V6.58939H49.9232V3.82624H47.6244V0.935547H44.9352V3.82624H43.5039V6.58939H44.9352V11.5631Z" fill="black"/>
<path d="M37.6035 15.6855C38.4276 15.6855 39.2083 15.4305 39.9023 14.9628V15.3879H42.5915V3.8252H39.9023V10.6268C39.9891 11.8171 39.0348 12.8373 37.8204 12.9224C36.6059 13.0074 35.565 12.0722 35.4782 10.8819C35.4782 10.7969 35.4782 10.7118 35.4782 10.6268V3.8252H32.7891V10.6268C32.7891 13.4325 34.7409 15.6855 37.6035 15.6855Z" fill="black"/>
<path d="M25.3732 10.67L29.3635 15.4312H33.0936L27.7587 9.26721L32.3563 3.82591H28.6262L25.3732 7.86437V0H22.6406V15.4312H25.3732V10.67Z" fill="black"/>
<path d="M18.433 14.8785V15.3886H21.1222V3.82589H18.433V4.33601C17.6957 3.82589 16.8282 3.52832 15.9174 3.52832C12.8812 3.52832 10.5391 6.24897 10.5391 9.60727C10.5391 12.9656 12.8379 15.6862 15.9174 15.6862C16.8282 15.6862 17.6957 15.3886 18.433 14.8785ZM13.2716 9.64978C13.2716 7.82184 14.3559 6.3765 15.874 6.3765C17.3921 6.3765 18.433 7.82184 18.433 9.64978C18.433 11.4777 17.3921 12.9231 15.874 12.9231C14.3559 12.9231 13.2716 11.4777 13.2716 9.64978Z" fill="black"/>
<path d="M9.67229 5.90923C9.67229 3.14607 7.41687 0.935547 4.59759 0.935547H0V15.389H2.81928V10.9254H4.77108L8.19759 15.389H11.7108L7.54699 9.9902C8.89157 9.05498 9.67229 7.52462 9.67229 5.90923ZM4.64096 8.20478H2.81928V3.6987H4.64096C5.89879 3.6987 6.93976 4.71895 6.93976 5.95174C6.93976 7.18453 5.89879 8.20478 4.64096 8.20478Z" fill="black"/>
</g>
<defs>
<clipPath id="clip0_1323:269235">
<rect width="72" height="21" fill="white"/>
</clipPath>
</defs>
</svg>
