<svg width="55" height="20" viewBox="0 0 55 20" fill="none" xmlns="http://www.w3.org/2000/svg">
<path d="M5.83208 5.10532H0.356934L0.356934 0H17.3732V5.10532H11.8968V20H5.83208V5.10532ZM18.3148 0H34.8602V5.10532H24.38V7.56799H34.8602V12.3721H24.38V14.8947H34.8602V20H18.3148V0ZM35.8605 0H45.8112C52.3472 0 54.6426 4.92516 54.6426 9.97037C54.6426 16.0964 51.4626 20 44.6333 20H35.8605V0ZM41.9257 14.8947H44.2798C48.0479 14.8947 48.5791 11.7722 48.5791 9.91043C48.5791 8.64862 48.1669 5.16543 43.809 5.16543H41.8654L41.9257 14.8947Z" fill="black"/>
</svg>
