<svg xmlns="http://www.w3.org/2000/svg" xmlns:xlink="http://www.w3.org/1999/xlink" width="498" zoomAndPan="magnify" viewBox="0 0 373.5 440.999989" height="588" preserveAspectRatio="xMidYMid meet" version="1.0"><defs><clipPath id="6cba1db8dc"><path d="M 0.242188 0.570312 L 372.558594 0.570312 L 372.558594 440 L 0.242188 440 Z M 0.242188 0.570312 " clip-rule="nonzero"/></clipPath><clipPath id="d49631db90"><path d="M 27.207031 0.570312 L 345.59375 0.570312 C 360.484375 0.570312 372.558594 12.644531 372.558594 27.535156 L 372.558594 413.351562 C 372.558594 428.242188 360.484375 440.316406 345.59375 440.316406 L 27.207031 440.316406 C 12.316406 440.316406 0.242188 428.242188 0.242188 413.351562 L 0.242188 27.535156 C 0.242188 12.644531 12.316406 0.570312 27.207031 0.570312 Z M 27.207031 0.570312 " clip-rule="nonzero"/></clipPath></defs><g clip-path="url(#6cba1db8dc)"><g clip-path="url(#d49631db90)"><path fill="#edc2f6" d="M 0.242188 0.570312 L 372.558594 0.570312 L 372.558594 439.789062 L 0.242188 439.789062 Z M 0.242188 0.570312 " fill-opacity="1" fill-rule="nonzero"/><path fill="#edc2f6" d="M 0.242188 0.570312 L 372.558594 0.570312 L 372.558594 439.789062 L 0.242188 439.789062 Z M 0.242188 0.570312 " fill-opacity="1" fill-rule="nonzero"/></g></g></svg>