<svg xmlns="http://www.w3.org/2000/svg" xmlns:xlink="http://www.w3.org/1999/xlink" width="457" zoomAndPan="magnify" viewBox="0 0 342.75 443.999984" height="592" preserveAspectRatio="xMidYMid meet" version="1.0"><defs><clipPath id="a861518701"><path d="M 0.476562 0.425781 L 342.402344 0.425781 L 342.402344 443.835938 L 0.476562 443.835938 Z M 0.476562 0.425781 " clip-rule="nonzero"/></clipPath><clipPath id="1dc4330b9d"><path d="M 28.957031 0.425781 L 313.921875 0.425781 C 329.648438 0.425781 342.402344 13.175781 342.402344 28.90625 L 342.402344 414.757812 C 342.402344 430.488281 329.648438 443.238281 313.921875 443.238281 L 28.957031 443.238281 C 13.230469 443.238281 0.476562 430.488281 0.476562 414.757812 L 0.476562 28.90625 C 0.476562 13.175781 13.230469 0.425781 28.957031 0.425781 Z M 28.957031 0.425781 " clip-rule="nonzero"/></clipPath></defs><g clip-path="url(#a861518701)"><g clip-path="url(#1dc4330b9d)"><path fill="#0d0126" d="M 0.476562 0.425781 L 342.402344 0.425781 L 342.402344 443.855469 L 0.476562 443.855469 Z M 0.476562 0.425781 " fill-opacity="1" fill-rule="nonzero"/><path fill="#0d0126" d="M 0.476562 0.425781 L 342.402344 0.425781 L 342.402344 443.855469 L 0.476562 443.855469 Z M 0.476562 0.425781 " fill-opacity="1" fill-rule="nonzero"/></g></g></svg>